<?xml version="1.0" encoding="UTF-8" standalone="no"?>
<!-- Created with Inkscape (http://www.inkscape.org/) -->

<svg
   xmlns:dc="http://purl.org/dc/elements/1.1/"
   xmlns:cc="http://creativecommons.org/ns#"
   xmlns:rdf="http://www.w3.org/1999/02/22-rdf-syntax-ns#"
   xmlns:svg="http://www.w3.org/2000/svg"
   xmlns="http://www.w3.org/2000/svg"
   xmlns:sodipodi="http://sodipodi.sourceforge.net/DTD/sodipodi-0.dtd"
   xmlns:inkscape="http://www.inkscape.org/namespaces/inkscape"
   width="279.35004"
   height="114.98911"
   id="svg2"
   sodipodi:version="0.32"
   inkscape:version="0.47 r22583"
   sodipodi:docname="1209672492543542143PanamaG_NES_Controller.svg"
   inkscape:output_extension="org.inkscape.output.svg.inkscape"
   version="1.0"
   sodipodi:modified="true">
  <defs
     id="defs4">
    <inkscape:perspective
       sodipodi:type="inkscape:persp3d"
       inkscape:vp_x="0 : 57.494556 : 1"
       inkscape:vp_y="0 : 1000 : 0"
       inkscape:vp_z="279.35004 : 57.494556 : 1"
       inkscape:persp3d-origin="139.67502 : 38.329704 : 1"
       id="perspective43" />
  </defs>
  <sodipodi:namedview
     id="base"
     pagecolor="#ffffff"
     bordercolor="#666666"
     borderopacity="1.0"
     gridtolerance="10000"
     guidetolerance="10"
     objecttolerance="10"
     inkscape:pageopacity="0.0"
     inkscape:pageshadow="2"
     inkscape:zoom="1"
     inkscape:cx="259.64996"
     inkscape:cy="77.005826"
     inkscape:document-units="px"
     inkscape:current-layer="layer1"
     inkscape:window-width="1280"
     inkscape:window-height="725"
     inkscape:window-x="0"
     inkscape:window-y="24"
     showguides="true"
     inkscape:guide-bbox="true"
     showgrid="false"
     inkscape:window-maximized="1" />
  <metadata
     id="metadata7">
    <rdf:RDF>
      <cc:Work
         rdf:about="">
        <dc:format>image/svg+xml</dc:format>
        <dc:type
           rdf:resource="http://purl.org/dc/dcmitype/StillImage" />
      </cc:Work>
    </rdf:RDF>
  </metadata>
  <g
     inkscape:label="Layer 1"
     inkscape:groupmode="layer"
     id="layer1"
     style="display:inline"
     transform="translate(-253.11104,-385.01273)">
    <rect
       ry="0"
       y="404.159"
       x="260.3931"
       height="89.137741"
       width="265.58331"
       id="rect11983"
       style="fill:#000000;fill-opacity:1;fill-rule:nonzero;stroke:none" />
    <rect
       style="fill:#808080;fill-opacity:1;fill-rule:nonzero;stroke:none"
       id="rect12203"
       width="78.828934"
       height="13.698713"
       x="342.68814"
       y="400.9902"
       ry="4.4317212" />
    <rect
       ry="4.4317212"
       y="484.52847"
       x="342.68814"
       height="13.698713"
       width="78.828934"
       id="rect13178"
       style="fill:#808080;fill-opacity:1;fill-rule:nonzero;stroke:none" />
    <path
       style="fill:#dcdcdc;fill-opacity:1;fill-rule:nonzero;stroke:none"
       d="m 256.83207,385.01273 c -2.05758,0 -3.72103,1.66348 -3.72103,3.72104 l 0,107.54704 c 0,2.05758 1.66348,3.72106 3.72103,3.72103 l 271.99872,0 c 2.05758,0 3.63022,-1.66345 3.63028,-3.72103 l 0,-107.54704 c 0,-2.05759 -1.57267,-3.72104 -3.63028,-3.72104 l -271.99872,0 z m 3.53953,19.14973 265.64572,0 0,89.12337 -265.64572,0 0,-89.12337 z"
       id="rect11976" />
    <path
       style="fill:#000000;fill-opacity:1;fill-rule:nonzero;stroke:#ffffff;stroke-width:1.65229523;stroke-linecap:round;stroke-linejoin:miter;stroke-miterlimit:4;stroke-opacity:1;stroke-dasharray:none"
       d="m 293.06807,426.98954 c -1.22592,-3e-5 -2.15141,1.01154 -2.15141,2.2375 l 0,15.40421 -15.40421,0 c -1.22593,3e-5 -2.2375,1.01154 -2.2375,2.23747 l 0,12.39223 c 0,1.22591 1.01154,2.23748 2.2375,2.23748 l 15.40421,0 0,15.40421 c 2e-5,1.22593 0.92549,2.15142 2.15141,2.15142 l 12.47829,0 c 1.2259,0 2.15142,-0.92547 2.15142,-2.15142 l 0,-15.40421 15.40421,0 c 1.22593,0 2.23747,-1.01154 2.23747,-2.23748 l 0,-12.39223 c 3e-5,-1.22593 -1.01151,-2.23747 -2.23747,-2.23747 l -15.40421,0 0,-15.40421 c 0,-1.22593 -0.92548,-2.2375 -2.15142,-2.2375 l -12.47829,0 z"
       id="rect2235" />
    <rect
       ry="4.4317212"
       y="418.62302"
       x="342.68814"
       height="13.698713"
       width="78.828934"
       id="rect11986"
       style="fill:#808080;fill-opacity:1;fill-rule:nonzero;stroke:none" />
    <g
       id="g12011"
       transform="matrix(2.9042238,0,0,2.9042238,-597.29495,-994.37335)">
      <rect
         ry="1.7264029"
         y="497.5408"
         x="354.96936"
         height="10.892857"
         width="10.892857"
         id="rect11997"
         style="fill:#dddddd;fill-opacity:1;fill-rule:nonzero;stroke:none" />
      <path
         transform="translate(-0.1199237,-0.9375)"
         d="m 364.99999,503.96933 c 0,2.46556 -1.99873,4.46429 -4.46428,4.46429 -2.46556,0 -4.46429,-1.99873 -4.46429,-4.46429 0,-2.46556 1.99873,-4.46429 4.46429,-4.46429 2.46555,0 4.46428,1.99873 4.46428,4.46429 z"
         sodipodi:ry="4.4642859"
         sodipodi:rx="4.4642859"
         sodipodi:cy="503.96933"
         sodipodi:cx="360.53571"
         id="path12001"
         style="fill:#ff0000;fill-opacity:1;fill-rule:nonzero;stroke:none"
         sodipodi:type="arc" />
    </g>
    <g
       id="g12007"
       transform="matrix(2.9042238,0,0,2.9042238,-597.29495,-994.37335)">
      <rect
         style="fill:#dddddd;fill-opacity:1;fill-rule:nonzero;stroke:none"
         id="rect12003"
         width="10.892857"
         height="10.892857"
         x="367.34372"
         y="497.5408"
         ry="1.7264029" />
      <path
         sodipodi:type="arc"
         style="fill:#ff0000;fill-opacity:1;fill-rule:nonzero;stroke:none"
         id="path12005"
         sodipodi:cx="360.53571"
         sodipodi:cy="503.96933"
         sodipodi:rx="4.4642859"
         sodipodi:ry="4.4642859"
         d="m 364.99999,503.96933 c 0,2.46556 -1.99873,4.46429 -4.46428,4.46429 -2.46556,0 -4.46429,-1.99873 -4.46429,-4.46429 0,-2.46556 1.99873,-4.46429 4.46429,-4.46429 2.46555,0 4.46428,1.99873 4.46428,4.46429 z"
         transform="translate(12.254445,-0.9375)" />
    </g>
    <g
       id="g2334"
       transform="matrix(0.3924689,0,0,0.3924689,245.61055,262.94991)">
      <rect
         ry="11.291904"
         y="441.57883"
         x="247.35106"
         height="34.903946"
         width="200.85396"
         id="rect12205"
         style="fill:#808080;fill-opacity:1;fill-rule:nonzero;stroke:none" />
      <path
         id="text2252"
         d="m 231.74041,527.22887 -4.24511,-0.0252 c -0.028,-0.34744 -0.10088,-0.65847 -0.21856,-0.93308 -0.0504,-0.11768 -0.11208,-0.23256 -0.18493,-0.34466 -0.0729,-0.11207 -0.16253,-0.21294 -0.269,-0.30262 -0.10648,-0.0897 -0.22977,-0.1625 -0.36987,-0.21856 -0.1345,-0.0616 -0.28862,-0.0953 -0.46234,-0.10087 -0.2746,-0.0112 -0.51838,0.0336 -0.73133,0.1345 -0.0897,0.0448 -0.17934,0.10368 -0.269,0.17653 -0.0841,0.0673 -0.15972,0.15412 -0.22697,0.26059 -0.0672,0.10649 -0.12049,0.23538 -0.15971,0.38668 -0.0392,0.14572 -0.056,0.31945 -0.0504,0.52118 0.0224,0.22418 0.16812,0.44834 0.43712,0.67249 0.11768,0.0953 0.26619,0.19896 0.44553,0.31103 0.17932,0.10649 0.40068,0.21857 0.66408,0.33625 0.26899,0.11209 0.58282,0.22417 0.94149,0.33624 0.36426,0.1121 0.78737,0.21857 1.26933,0.31944 0.66688,0.24098 1.25811,0.57163 1.7737,0.99193 0.21855,0.17933 0.43151,0.38669 0.63887,0.62205 0.20734,0.23538 0.38947,0.50438 0.5464,0.80699 0.1569,0.29702 0.27739,0.62767 0.36146,0.99193 0.0897,0.35867 0.12608,0.75656 0.10928,1.19367 0.006,0.70052 -0.18214,1.32818 -0.56321,1.88298 -0.16253,0.23538 -0.37548,0.46514 -0.63887,0.68931 -0.2578,0.22416 -0.58283,0.42591 -0.97511,0.60524 -0.3923,0.17373 -0.86024,0.31383 -1.40383,0.42031 -0.5436,0.10647 -1.17967,0.15971 -1.9082,0.15971 -1.03116,-0.0168 -1.95583,-0.15971 -2.77403,-0.42871 -0.34746,-0.11769 -0.69211,-0.26619 -1.03395,-0.44553 -0.33625,-0.17933 -0.63887,-0.40349 -0.90787,-0.67249 -0.269,-0.26899 -0.49036,-0.58563 -0.66409,-0.94989 -0.17372,-0.36987 -0.26899,-0.79859 -0.28581,-1.28615 l 4.6318,0.0252 c -0.0336,0.39229 -0.008,0.74535 0.0756,1.05918 0.0336,0.1345 0.0813,0.269 0.14291,0.40349 0.0672,0.1289 0.1513,0.24939 0.25218,0.36147 0.10647,0.10648 0.23257,0.19895 0.37828,0.2774 0.1513,0.0729 0.33063,0.11769 0.53799,0.1345 0.30262,0.0392 0.56881,0.0196 0.79859,-0.0588 0.0953,-0.0336 0.18773,-0.0813 0.2774,-0.14291 0.0953,-0.0616 0.17652,-0.1429 0.24378,-0.24378 0.0672,-0.10087 0.11768,-0.22416 0.15131,-0.36987 0.0392,-0.15131 0.0504,-0.32783 0.0336,-0.52959 -0.006,-0.24657 -0.1345,-0.49596 -0.38668,-0.74814 -0.10648,-0.10648 -0.24659,-0.21856 -0.42031,-0.33625 -0.16813,-0.12329 -0.38108,-0.24658 -0.63886,-0.36987 -0.2578,-0.12329 -0.56322,-0.24658 -0.91628,-0.36987 -0.34746,-0.12889 -0.75375,-0.25218 -1.21889,-0.36987 -0.80139,-0.24097 -1.5047,-0.57722 -2.10994,-1.00874 -0.25779,-0.18493 -0.50718,-0.39508 -0.74815,-0.63046 -0.24098,-0.24097 -0.44833,-0.51277 -0.62206,-0.8154 -0.17372,-0.30822 -0.30262,-0.65007 -0.38668,-1.02555 -0.0841,-0.37547 -0.10087,-0.78737 -0.0504,-1.23571 0.0617,-0.63325 0.29982,-1.20767 0.71453,-1.72326 0.17372,-0.21855 0.39508,-0.4343 0.66408,-0.64727 0.2746,-0.21294 0.60805,-0.40629 1.00034,-0.58003 0.39228,-0.17931 0.85182,-0.32782 1.3786,-0.44552 0.53239,-0.12328 1.14604,-0.19893 1.84095,-0.22697 0.93028,0.0168 1.7793,0.14852 2.54707,0.39509 0.32503,0.10649 0.65007,0.24379 0.97511,0.4119 0.32503,0.16814 0.62485,0.37829 0.89946,0.63046 0.27459,0.2466 0.50996,0.54081 0.70612,0.88265 0.19613,0.33626 0.33063,0.73135 0.40349,1.18527 m 2.21082,-3.52218 3.80799,0 7.25451,0 0,2.66475 -7.25451,-0.008 0,3.03463 5.75822,0 0,2.0595 -5.75822,0 0,2.9926 7.18726,-0.008 0,2.70678 -7.18726,0 -3.80799,0 0,-13.44144 m 12.24777,0 1.42905,0 0.79018,0 0.79858,0 0.79018,0 -0.79018,0 0.79018,0 0,3.56421 0,2.75722 0,0.79858 0,1.97545 0,1.84095 5.92634,0.008 0,2.53026 -5.92634,-0.0336 -1.97545,0 -0.79858,0 -0.79018,0 -0.24378,0 0,-13.44144 m 10.58335,0 3.80799,0 7.25451,0 0,2.66475 -7.25451,-0.008 0,3.03463 5.75822,0 0,2.0595 -5.75822,0 0,2.9926 7.18726,-0.008 0,2.70678 -7.18726,0 -3.80799,0 0,-13.44144 m 12.12168,6.71652 c 0.25218,-4.29273 2.43217,-6.58761 6.53998,-6.88464 3.70431,0.14011 5.94314,1.91661 6.71652,5.3295 l -4.72426,-0.0168 c -0.028,-0.6893 -0.10088,-1.25531 -0.21856,-1.69805 -0.11769,-0.44831 -0.269,-0.79857 -0.45393,-1.05077 -0.17934,-0.25217 -0.38389,-0.41749 -0.61365,-0.49596 -0.22977,-0.0841 -0.46515,-0.10647 -0.70612,-0.0673 -0.36987,1e-5 -0.6781,0.1205 -0.92467,0.36147 -0.24659,0.24098 -0.44273,0.57443 -0.58843,1.00033 -0.14011,0.42592 -0.23538,0.93029 -0.28581,1.51311 -0.0448,0.58283 -0.0532,1.21609 -0.0252,1.89979 -0.0112,0.82941 0.008,1.57476 0.0588,2.23604 0.0504,0.66128 0.1457,1.21889 0.28581,1.67282 0.1401,0.45394 0.33064,0.79859 0.57162,1.03396 0.24097,0.23537 0.54359,0.33905 0.90786,0.31103 0.24658,-0.0168 0.46514,-0.0757 0.65568,-0.17653 0.19614,-0.10648 0.36987,-0.24378 0.52119,-0.41191 0.1513,-0.16812 0.28019,-0.35866 0.38668,-0.57161 0.10647,-0.21296 0.19613,-0.43712 0.269,-0.6725 0.0728,-0.24097 0.12608,-0.48475 0.15971,-0.73133 0.0392,-0.24658 0.0644,-0.48475 0.0757,-0.71453 l 4.67382,-0.0504 c -0.14572,0.56041 -0.33906,1.0956 -0.58002,1.60557 -0.24099,0.50998 -0.5296,0.97232 -0.86584,1.38702 -0.33626,0.4091 -0.72014,0.75936 -1.15164,1.05077 -0.43153,0.28581 -0.91628,0.49036 -1.45427,0.61365 -2.14077,0.49316 -4.16385,0.30262 -6.06924,-0.57162 -1.89979,-0.87424 -2.95336,-2.84128 -3.16071,-5.90112 m 19.09878,-5.12776 -4.70744,0.008 0,-1.59717 5.3379,0 3.80799,0 5.12776,0 0,1.59717 -4.66542,-0.008 0,11.85268 -4.90079,0 0,-11.85268"
         style="font-size:17.21580696px;font-style:normal;font-weight:normal;fill:#ff0000;fill-opacity:1;stroke:none;font-family:Pretendo"
         transform="scale(1.1605431,0.8616656)" />
      <path
         id="text2256"
         d="m 321.0863,526.85117 -4.25143,-0.0253 c -0.0281,-0.34797 -0.10103,-0.65946 -0.21889,-0.93448 -0.0505,-0.11785 -0.11225,-0.2329 -0.18521,-0.34516 -0.073,-0.11224 -0.16277,-0.21327 -0.2694,-0.30308 -0.10664,-0.0898 -0.23011,-0.16275 -0.37042,-0.21888 -0.1347,-0.0617 -0.28905,-0.0954 -0.46303,-0.10103 -0.27501,-0.0112 -0.51915,0.0337 -0.73242,0.1347 -0.0898,0.0449 -0.17961,0.10384 -0.2694,0.17679 -0.0842,0.0674 -0.15996,0.15436 -0.2273,0.26098 -0.0674,0.10665 -0.12068,0.23574 -0.15996,0.38726 -0.0393,0.14594 -0.0561,0.31992 -0.0505,0.52196 0.0224,0.22451 0.16837,0.44901 0.43777,0.6735 0.11786,0.0954 0.26659,0.19925 0.44619,0.31149 0.17959,0.10664 0.40129,0.21889 0.66508,0.33674 0.26939,0.11226 0.58369,0.22451 0.94289,0.33675 0.3648,0.11226 0.78854,0.2189 1.27122,0.31991 0.66787,0.24135 1.25999,0.57248 1.77634,0.99341 0.21888,0.1796 0.43215,0.38726 0.63982,0.62298 0.20765,0.23573 0.39006,0.50513 0.54722,0.80819 0.15713,0.29747 0.2778,0.6286 0.362,0.99341 0.0898,0.3592 0.12627,0.75768 0.10944,1.19545 0.006,0.70156 -0.18241,1.33015 -0.56405,1.88578 -0.16277,0.23573 -0.37604,0.46584 -0.63982,0.69034 -0.25818,0.2245 -0.5837,0.42654 -0.97657,0.60614 -0.39288,0.17399 -0.86152,0.3143 -1.40592,0.42094 -0.54441,0.10663 -1.18143,0.15995 -1.91104,0.15995 -1.03269,-0.0168 -1.95875,-0.15995 -2.77816,-0.42935 -0.34798,-0.11786 -0.69314,-0.26659 -1.0355,-0.44619 -0.33675,-0.1796 -0.63982,-0.4041 -0.90922,-0.6735 -0.2694,-0.26939 -0.49109,-0.5865 -0.66507,-0.95131 -0.17399,-0.37042 -0.2694,-0.79977 -0.28624,-1.28806 l 4.63869,0.0253 c -0.0337,0.39288 -0.008,0.74646 0.0758,1.06075 0.0337,0.13471 0.0814,0.2694 0.14312,0.4041 0.0673,0.12909 0.15153,0.24976 0.25256,0.362 0.10663,0.10664 0.23291,0.19925 0.37884,0.27782 0.15153,0.073 0.33113,0.11786 0.5388,0.1347 0.30306,0.0393 0.56965,0.0196 0.79977,-0.0589 0.0954,-0.0337 0.18801,-0.0814 0.27782,-0.14312 0.0954,-0.0617 0.17678,-0.14311 0.24414,-0.24414 0.0673,-0.10102 0.11785,-0.2245 0.15154,-0.37042 0.0393,-0.15154 0.0505,-0.32833 0.0337,-0.53038 -0.006,-0.24694 -0.13471,-0.4967 -0.38726,-0.74926 -0.10664,-0.10664 -0.24695,-0.21888 -0.42093,-0.33675 -0.16838,-0.12347 -0.38166,-0.24694 -0.63982,-0.37042 -0.25818,-0.12347 -0.56406,-0.24695 -0.91764,-0.37042 -0.34798,-0.12909 -0.75488,-0.25256 -1.22071,-0.37043 -0.80258,-0.24133 -1.50694,-0.57807 -2.11309,-1.01024 -0.25817,-0.1852 -0.50793,-0.39567 -0.74926,-0.6314 -0.24134,-0.24133 -0.449,-0.51353 -0.62298,-0.81661 -0.17399,-0.30868 -0.30308,-0.65104 -0.38726,-1.02708 -0.0842,-0.37603 -0.10103,-0.78854 -0.0505,-1.23755 0.0617,-0.63419 0.30026,-1.20947 0.71558,-1.72583 0.17399,-0.21887 0.39568,-0.43495 0.66508,-0.64824 0.27501,-0.21326 0.60895,-0.40689 1.00182,-0.58088 0.39287,-0.17959 0.85309,-0.32832 1.38067,-0.44619 0.53318,-0.12347 1.14774,-0.19923 1.84369,-0.22731 0.93166,0.0168 1.78195,0.14874 2.55086,0.39568 0.32551,0.10665 0.65104,0.24415 0.97657,0.41251 0.32551,0.16839 0.62578,0.37886 0.9008,0.63141 0.275,0.24696 0.51072,0.54161 0.70717,0.88396 0.19642,0.33676 0.33112,0.73243 0.40409,1.18703 m 6.97909,-1.9363 -4.71446,0.008 0,-1.59955 5.34586,0 3.81366,0 5.1354,0 0,1.59955 -4.67237,-0.008 0,11.87035 -4.90809,0 0,-11.87035 m 10.39707,11.90402 c -0.18521,-9.3335 1.9812,-13.82066 6.49923,-13.46147 4.70322,-0.39847 6.89769,4.09429 6.58341,13.47831 l -4.51242,-0.008 -0.0168,-4.67237 -4.08307,0 -0.008,4.66395 -4.46191,0 0,0 m 6.49923,-12.28286 c -1.41435,-0.11785 -2.08223,1.87738 -2.00365,5.98569 l 2.08783,0 0.83345,0 1.22071,0 c 0.073,-4.02412 -0.63983,-6.01935 -2.13834,-5.98569 m 7.34951,-1.3975 3.80524,0 c 5.07365,-0.0393 7.50104,1.36665 7.28216,4.21776 -0.10103,1.77355 -0.91765,2.82869 -2.44983,3.16543 1.56025,0.28624 2.39931,1.07479 2.51718,2.36565 l -0.0253,3.91468 -4.0999,0 0.008,-3.87259 c 0.0505,-1.25718 -0.88117,-1.84369 -2.79501,-1.7595 l 0,5.64051 -2.20569,0 -0.88396,0 -0.88397,0 -0.26939,0 0,-13.67194 m 5.42163,1.28806 c -0.8082,0.0225 -1.22633,0.23293 -1.25439,0.6314 l 0,3.93153 c 0.0393,0.50513 0.47145,0.75769 1.29648,0.75768 0.8138,-0.0337 1.19545,-0.90641 1.14494,-2.61821 l 0,-1.07759 c 0.006,-0.99901 -0.39007,-1.54061 -1.18703,-1.62481 m 11.48308,0.48828 -4.71446,0.008 0,-1.59955 5.34587,0 3.81366,0 5.1354,0 0,1.59955 -4.67237,-0.008 0,11.87035 -4.9081,0 0,-11.87035"
         style="font-size:17.24146271px;font-style:normal;font-weight:normal;fill:#ff0000;fill-opacity:1;stroke:none;font-family:Pretendo"
         transform="scale(1.158816,0.8629498)" />
    </g>
    <path
       style="font-size:20.06056023px;font-style:normal;font-weight:normal;fill:#ff0000;fill-opacity:1;stroke:none;font-family:Pretendo"
       d="m 458.34527,484.64077 1.99524,0 c 2.5497,-0.0533 3.80753,0.35318 3.77351,1.21933 0.18717,0.85921 -0.37438,1.3085 -1.68468,1.34787 1.15147,0.0764 1.75983,0.53382 1.82506,1.37218 0.003,1.23208 -1.2238,1.79948 -3.67991,1.70221 l -1.15715,0 -0.46797,0 -0.46371,0 -0.14039,0 0,-5.64159 m 2.77801,0.4655 c -0.47647,0.009 -0.72038,0.0799 -0.73172,0.21191 l 0,1.32702 c 0.0227,0.1737 0.2751,0.25823 0.75725,0.2536 0.4708,-0.009 0.6906,-0.30223 0.65941,-0.8789 l 0,-0.36475 c 0.009,-0.33349 -0.21981,-0.51645 -0.68494,-0.54888 m 0.0468,2.53246 c -0.5332,0.0116 -0.80547,0.0984 -0.81681,0.26054 l 0,1.62231 c 0.0255,0.20843 0.3063,0.31265 0.84234,0.31265 0.53036,-0.0139 0.77568,-0.37403 0.73598,-1.08038 l 0,-0.44466 c 0.009,-0.41223 -0.24533,-0.63572 -0.76151,-0.67046"
       id="text2276" />
    <path
       style="font-size:20.16228485px;font-style:normal;font-weight:normal;fill:#ff0000;fill-opacity:1;stroke:none;font-family:Pretendo"
       d="m 494.2235,490.42133 c -0.0936,-3.89054 1.00116,-5.76094 3.28427,-5.61122 2.37669,-0.1661 3.48563,1.70665 3.32681,5.61824 l -2.28027,-0.004 -0.009,-1.94761 -2.0633,0 -0.004,1.9441 -2.25474,0 0,0 m 3.28427,-5.11993 c -0.71472,-0.0491 -1.05222,0.78256 -1.01251,2.49505 l 1.05505,0 0.42117,0 0.61686,0 c 0.0369,-1.6774 -0.32332,-2.50908 -1.08057,-2.49505"
       id="text2280" />
    <g
       id="g5337"
       transform="matrix(2.9042238,0,0,2.9042238,-599.88803,-994.8659)">
      <rect
         ry="1.700721"
         y="498.76794"
         x="324.55356"
         height="8.9561291"
         width="27.14785"
         id="rect12199"
         style="fill:#dddddd;fill-opacity:1;fill-rule:nonzero;stroke:none" />
      <rect
         style="fill:none;stroke:#808080;stroke-width:0.50215584;stroke-linecap:round;stroke-linejoin:miter;stroke-miterlimit:4;stroke-opacity:1;stroke-dasharray:none"
         id="rect12207"
         width="24.927811"
         height="7.3365445"
         x="325.66589"
         y="499.62238"
         ry="1.3931706" />
      <rect
         style="fill:#000000;fill-opacity:1;fill-rule:nonzero;stroke:none"
         id="rect4247"
         width="7.6249776"
         height="3.0050762"
         x="327.67856"
         y="501.90671"
         ry="1.5025381" />
      <rect
         ry="1.5025381"
         y="501.90671"
         x="340.87766"
         height="3.0050762"
         width="7.6249776"
         id="rect5332"
         style="fill:#000000;fill-opacity:1;fill-rule:nonzero;stroke:none" />
    </g>
  </g>
</svg>
